<svg width="26" height="29" viewBox="0 0 26 29" fill="none" xmlns="http://www.w3.org/2000/svg">
<path fill-rule="evenodd" clip-rule="evenodd" d="M0.5 10.2629L11.2504 16.4697C11.3662 16.5365 11.4876 16.5848 11.6111 16.6154V28.6531L1.26672 22.5313C0.791487 22.2501 0.5 21.7389 0.5 21.1866V10.2629ZM25.4998 10.0981V21.1868C25.4998 21.7391 25.2083 22.2503 24.7331 22.5315L14.3887 28.6533V16.5102C14.4139 16.4976 14.4389 16.4842 14.4636 16.4699L25.4998 10.0981Z" fill="#791229"/>
<path opacity="0.499209" fill-rule="evenodd" clip-rule="evenodd" d="M0.835938 7.25086C0.96725 7.08504 1.13299 6.94489 1.32622 6.84197L12.2637 1.01642C12.7229 0.771869 13.2736 0.771869 13.7328 1.01642L24.6703 6.84197C24.8192 6.92131 24.9519 7.02277 25.065 7.14106L13.0732 14.0645C12.9943 14.1101 12.9216 14.1621 12.8554 14.2197C12.7891 14.1621 12.7164 14.1101 12.6376 14.0645L0.835938 7.25086Z" fill="#791229"/>
</svg>
