<svg width="20" height="20" viewBox="0 0 20 20" fill="none" xmlns="http://www.w3.org/2000/svg">
<path d="M2.74204 17.3228H18.2976C18.8703 17.3228 19.3346 17.7871 19.3346 18.3599C19.3346 18.9326 18.8703 19.3969 18.2976 19.3969H1.70501C1.13227 19.3969 0.667969 18.9326 0.667969 18.3599V1.76726C0.667969 1.19452 1.13227 0.730225 1.70501 0.730225C2.27775 0.730225 2.74204 1.19452 2.74204 1.76726V17.3228Z" fill="#4AD991"/>
<path opacity="0.5" d="M6.61 12.847C6.21828 13.2648 5.56201 13.286 5.14417 12.8942C4.72634 12.5025 4.70517 11.8462 5.09689 11.4284L8.98578 7.28026C9.36462 6.87617 9.99415 6.84112 10.4155 7.20068L13.4849 9.81986L17.4839 4.75435C17.8388 4.30482 18.491 4.2281 18.9405 4.58299C19.39 4.93789 19.4667 5.59 19.1118 6.03954L14.4452 11.9506C14.0807 12.4124 13.4055 12.4788 12.9581 12.0969L9.82201 9.42081L6.61 12.847Z" fill="#4AD991"/>
</svg>
