<svg width="26" height="20" viewBox="0 0 26 20" fill="none" xmlns="http://www.w3.org/2000/svg">
<path opacity="0.587821" fill-rule="evenodd" clip-rule="evenodd" d="M5.54346 4.44446C5.54346 6.89906 7.44511 8.88891 9.79092 8.88891C12.1367 8.88891 14.0384 6.89906 14.0384 4.44446C14.0384 1.98985 12.1367 0 9.79092 0C7.44511 0 5.54346 1.98985 5.54346 4.44446ZM16.162 8.88998C16.162 10.7309 17.5883 12.2233 19.3476 12.2233C21.107 12.2233 22.5332 10.7309 22.5332 8.88998C22.5332 7.04903 21.107 5.55664 19.3476 5.55664C17.5883 5.55664 16.162 7.04903 16.162 8.88998Z" fill="#2758C1"/>
<path fill-rule="evenodd" clip-rule="evenodd" d="M9.77152 11.1111C4.758 11.1111 0.6447 13.8072 0.233114 19.1102C0.210694 19.3991 0.738626 20 1.00493 20H18.5461C19.3438 20 19.3562 19.3283 19.3438 19.1111C19.0326 13.6591 14.8556 11.1111 9.77152 11.1111ZM18.9203 13.3334C20.2533 15.1903 21.0433 17.4983 21.0436 19.9994H25.1381C25.7142 19.9994 25.7232 19.4957 25.7142 19.3328C25.4919 15.2882 22.5379 13.3745 18.9203 13.3334Z" fill="#2758C1"/>
</svg>
